<svg width="16" height="17" viewBox="0 0 16 17" fill="none" xmlns="http://www.w3.org/2000/svg">
<path d="M15.3907 11.806L13.7412 8.92661V5.92857C13.7412 2.93525 11.1658 0.5 8.0001 0.5C4.83443 0.5 2.25897 2.93525 2.25897 5.92857V8.92661L0.609446 11.806C0.534642 11.9366 0.496993 12.0833 0.500188 12.2317C0.503383 12.3802 0.547312 12.5253 0.627672 12.6529C0.708031 12.7805 0.822064 12.8861 0.958597 12.9595C1.09513 13.0329 1.24948 13.0714 1.40652 13.0714H4.69011C4.68095 13.1664 4.67633 13.2618 4.67625 13.3571C4.67625 14.1907 5.02644 14.9901 5.64977 15.5795C6.27311 16.1689 7.11854 16.5 8.00007 16.5C8.8816 16.5 9.72702 16.1689 10.3504 15.5795C10.9737 14.9901 11.3239 14.1907 11.3239 13.3571C11.3239 13.2607 11.319 13.1656 11.31 13.0714H14.5936C14.7506 13.0714 14.905 13.0328 15.0415 12.9594C15.178 12.8861 15.292 12.7804 15.3724 12.6529C15.4527 12.5253 15.4966 12.3802 15.4998 12.2317C15.503 12.0833 15.4655 11.9366 15.3907 11.806ZM10.1153 13.3571C10.1155 13.632 10.0558 13.9039 9.93995 14.156C9.82409 14.4081 9.65452 14.6349 9.44183 14.8222C9.22914 15.0095 8.97789 15.1534 8.70378 15.2449C8.42966 15.3363 8.13855 15.3733 7.84862 15.3536C7.5587 15.334 7.27617 15.258 7.01868 15.1304C6.76119 15.0029 6.53426 14.8266 6.35206 14.6124C6.16986 14.3983 6.03629 14.1509 5.9597 13.8858C5.88311 13.6206 5.86513 13.3434 5.90689 13.0714H10.0933C10.1078 13.166 10.1151 13.2615 10.1153 13.3571ZM1.91382 11.9286L3.46763 9.21625V5.92857C3.46763 4.79193 3.94515 3.70184 4.79516 2.89811C5.64516 2.09439 6.79802 1.64286 8.0001 1.64286C9.20219 1.64286 10.355 2.09439 11.205 2.89811C12.0551 3.70184 12.5326 4.79193 12.5326 5.92857V9.21625L14.0863 11.9286H1.91382Z" fill="white" stroke="white"/>
</svg>
