<svg width="18" height="18" viewBox="0 0 18 18" fill="none" xmlns="http://www.w3.org/2000/svg">
<path d="M3.07895 0C2.26236 0 1.47922 0.267973 0.901803 0.744967C0.324388 1.22196 0 1.86891 0 2.54348V15.4565C0 16.1311 0.324388 16.778 0.901803 17.255C1.47922 17.732 2.26236 18 3.07895 18H17.2895C17.4779 18 17.6586 17.9382 17.7919 17.8281C17.9251 17.718 18 17.5687 18 17.413C18 17.2574 17.9251 17.1081 17.7919 16.998C17.6586 16.8879 17.4779 16.8261 17.2895 16.8261H3.07895C2.68029 16.8261 2.29498 16.7074 1.99363 16.4918C1.69228 16.2762 1.49506 15.9781 1.43811 15.6522H17.2895C17.4779 15.6522 17.6586 15.5903 17.7919 15.4803C17.9251 15.3702 18 15.2209 18 15.0652V2.54348C18 1.86891 17.6756 1.22196 17.0982 0.744967C16.5208 0.267973 15.7376 0 14.9211 0H3.07895ZM10.8947 6.64983C10.8952 7.06516 10.696 7.46364 10.3408 7.75761C9.98569 8.05159 9.50371 8.21698 9.00095 8.21739C8.49818 8.21781 8.01581 8.05322 7.65994 7.75983C7.30408 7.46644 7.10387 7.06829 7.10337 6.65296C7.10312 6.44731 7.15191 6.24363 7.24694 6.05356C7.34198 5.86348 7.48141 5.69073 7.65726 5.54517C8.01242 5.25119 8.49439 5.08581 8.99716 5.08539C9.49992 5.08498 9.9823 5.24957 10.3382 5.54296C10.694 5.83634 10.8942 6.2345 10.8947 6.64983ZM12.3158 9.63626V10.0589C12.3158 10.908 10.9042 11.5435 9 11.5435C7.09579 11.5435 5.68421 10.908 5.68421 10.0597V9.63626C5.68384 9.55295 5.70335 9.47039 5.74162 9.39331C5.7799 9.31623 5.8362 9.24615 5.90729 9.18705C5.97838 9.12796 6.06288 9.08102 6.15595 9.04893C6.24902 9.01683 6.34883 9.00021 6.44968 9H11.5503C11.6512 9.00021 11.751 9.01683 11.8441 9.04893C11.9371 9.08102 12.0216 9.12796 12.0927 9.18705C12.1638 9.24615 12.2201 9.31623 12.2584 9.39331C12.2967 9.47039 12.3162 9.55295 12.3158 9.63626Z" fill="white"/>
</svg>
